<svg width="25" height="25" viewBox="0 0 25 25" fill="none" xmlns="http://www.w3.org/2000/svg">
<path d="M11.3961 17.2795C11.2648 17.2798 11.1348 17.2542 11.0135 17.204C10.8922 17.1539 10.7819 17.0804 10.6891 16.9875L6.4471 12.7445C6.35153 12.6524 6.27527 12.5421 6.22277 12.4201C6.17028 12.2981 6.1426 12.1669 6.14136 12.0342C6.14011 11.9014 6.16532 11.7697 6.21551 11.6468C6.26571 11.5238 6.33988 11.4121 6.43371 11.3182C6.52753 11.2242 6.63913 11.1499 6.76199 11.0995C6.88485 11.0491 7.01651 11.0237 7.14929 11.0248C7.28207 11.0259 7.4133 11.0534 7.53534 11.1057C7.65738 11.158 7.76778 11.2341 7.8601 11.3295L11.3951 14.8645L17.7601 8.50155C17.9476 8.31391 18.202 8.20844 18.4672 8.20834C18.7325 8.20825 18.987 8.31354 19.1746 8.50105C19.3622 8.68855 19.4677 8.94292 19.4678 9.20819C19.4679 9.47346 19.3626 9.72791 19.1751 9.91555L12.1031 16.9875C12.0103 17.0804 11.9 17.1539 11.7787 17.204C11.6574 17.2542 11.5274 17.2798 11.3961 17.2795Z" fill="#2FAB73"/>
</svg>
